<?xml version="1.0" encoding="UTF-8" standalone="no"?>
<!-- Created with Inkscape (http://www.inkscape.org/) -->

<svg
   xmlns:dc="http://purl.org/dc/elements/1.1/"
   xmlns:cc="http://creativecommons.org/ns#"
   xmlns:rdf="http://www.w3.org/1999/02/22-rdf-syntax-ns#"
   xmlns:svg="http://www.w3.org/2000/svg"
   xmlns="http://www.w3.org/2000/svg"
   xmlns:sodipodi="http://sodipodi.sourceforge.net/DTD/sodipodi-0.dtd"
   xmlns:inkscape="http://www.inkscape.org/namespaces/inkscape"
   version="1.1"
   id="svg10"
   width="225"
   height="225"
   viewBox="0 0 225 225"
   sodipodi:docname="HHI LOGO 2.svg"
   inkscape:version="0.92.4 (5da689c313, 2019-01-14)">
  <metadata
     id="metadata16">
    <rdf:RDF>
      <cc:Work
         rdf:about="">
        <dc:format>image/svg+xml</dc:format>
        <dc:type
           rdf:resource="http://purl.org/dc/dcmitype/StillImage" />
        <dc:title></dc:title>
      </cc:Work>
    </rdf:RDF>
  </metadata>
  <defs
     id="defs14" />
  <sodipodi:namedview
     pagecolor="#ffffff"
     bordercolor="#666666"
     borderopacity="1"
     objecttolerance="10"
     gridtolerance="10"
     guidetolerance="10"
     inkscape:pageopacity="0"
     inkscape:pageshadow="2"
     inkscape:window-width="1920"
     inkscape:window-height="1001"
     id="namedview12"
     showgrid="false"
     inkscape:zoom="3.14"
     inkscape:cx="58.475389"
     inkscape:cy="128.03013"
     inkscape:window-x="-9"
     inkscape:window-y="-9"
     inkscape:window-maximized="1"
     inkscape:current-layer="g66" />
  <g
     id="g66"
     transform="translate(-4.7339109,7.2400986)">
    <path
       inkscape:connector-curvature="0"
       id="path44"
       d="m 103.50911,169.96133 c -3.33729,-4.14576 -7.40525,-11.50709 -9.810066,-17.75217 -0.763688,-1.98322 -0.940455,-2.88612 -1.090356,-5.56931 -0.43036,-7.70343 7.613682,-2.09705 5.778394,-3.25239 -0.777921,-0.48972 -1.572482,1.03083 -3.331241,1.12379 -2.28583,0.12081 5.336019,9.92724 1.035595,12.48269 -1.57814,0.93779 -19.117505,-18.14206 -19.509235,-18.19867 -0.8419,-0.12169 -4.738146,-4.25661 -4.738146,-5.10807 0,-0.34878 0.75505,-1.83547 1.67789,-3.30376 1.96252,-3.12249 4.18342,-7.36893 5.01151,-9.58219 0.77206,-2.06351 1.25306,-7.39537 0.81418,-9.02522 -0.50133,-1.8618 -3.60877,-4.73728 -7.22511,-6.68576 -1.60814,-0.86647 -3.24284,-1.75117 -3.63268,-1.96601 -1.00117,-0.55174 -5.92845,-10.425923 -6.70194,-13.430573 -1.24466,-4.834928 -0.99269,-12.6658 0.64044,-19.90459 1.99716,-8.852299 4.9937,-16.444452 8.56764,-21.707301 5.39105,-7.938686 11.958575,-13.843682 19.8713,-17.866704 2.449537,-1.245406 2.985887,-1.425684 3.347847,-1.125286 0.237055,0.196739 0.809889,1.507465 1.272968,2.912725 0.906204,2.749977 3.088632,10.401005 3.088632,10.827947 0,0.142873 -1.984227,2.303669 -4.409396,4.801769 -7.391269,7.613549 -10.660433,11.902789 -13.03404,17.101044 -1.448941,3.17321 -1.762541,4.890069 -1.761721,9.644803 8.4e-4,4.844217 0.3917,7.09002 1.677949,9.641027 3.902078,7.738946 11.111717,14.290685 22.957286,20.862349 4.18604,2.32232 6.21573,3.71209 9.29574,6.36499 2.97435,2.56188 3.75586,3.09141 4.56248,3.09141 0.46957,0 1.81081,-0.96777 4.27323,-3.08333 3.72732,-3.20231 5.0466,-4.0918 11.10742,-7.48891 4.35357,-2.44019 9.62865,-6.031784 12.13681,-8.263473 5.15761,-4.5891 9.76002,-11.418242 10.55546,-15.66238 0.42132,-2.248014 0.34415,-9.33799 -0.1231,-11.309455 -0.50848,-2.145417 -1.50495,-4.38192 -3.35186,-7.522945 -2.26103,-3.845336 -4.87823,-7.039978 -10.45249,-12.758678 l -5.09859,-5.23069 0.92239,-3.394834 c 1.49273,-5.493936 3.0352,-10.120847 3.50359,-10.509572 0.36772,-0.305184 0.83333,-0.168725 2.96918,0.870211 6.45143,3.138136 12.28595,7.875354 17.10471,13.88781 3.50372,4.371655 5.36005,7.314611 6.94726,11.013896 4.36597,10.175703 6.47371,19.931037 6.16692,28.542698 -0.19153,5.376556 -0.62261,6.856739 -3.96653,13.619708 l -2.88057,5.825884 -2.31869,1.11853 c -4.31891,2.08341 -7.13676,4.15426 -8.39369,6.16855 -0.55492,0.88928 -0.60818,1.34044 -0.60817,5.15161 l 2e-5,4.17698 1.27676,2.65743 c 1.46445,3.04807 3.06348,5.88545 5.0423,8.94726 1.23536,1.91146 1.34528,2.2052 1.04209,2.78466 -0.46902,0.89636 -4.16465,5.24246 -4.45784,5.24246 -0.13131,0 -4.14774,2.67558 -5.41655,1.85207 -4.43896,0.83483 -8.25994,0.81388 -5.8397,-0.79721 l 0.88991,-0.5924 10.36634,-0.46246 c -0.52727,0.55906 -19.41812,17.82178 -19.41812,17.82178 -0.16498,0.56971 3.57545,-15.90723 3.27272,-12.71636 -0.578,6.09231 -1.03612,7.87239 -3.27272,12.71636 -2.10405,4.55691 -7.78145,13.4219 -8.86111,13.83621 -0.2411,0.0925 -0.54911,-0.007 -0.68446,-0.22044 -0.13572,-0.21435 -0.24801,-8.33985 -0.25036,-18.11685 l -0.004,-17.72819 1.78792,-1.42269 c 2.38831,-1.90044 4.58654,-4.3405 5.24205,-5.81875 1.04236,-2.35063 1.13469,-9.51224 -0.60716,-10.41298 -0.70263,-0.36335 -5.1891,-3.29721 -6.97102,-3.17146 -3.63514,0.25654 -2.69144,-1.02591 -8.70761,2.85437 -2.85271,1.83993 -1.07621,0.2328 -2.22476,0.2328 -1.16141,0 -2.09029,2.38326 -4.72112,0.18522 -7.10205,-5.9337 -13.65186,-3.0037 -14.870346,1.52142 -0.632409,2.34859 -0.351384,9.9452 3.870916,13.90033 l 2.96775,2.77995 0.003,17.35277 c 0.002,11.43575 -0.0948,17.53644 -0.28482,17.8914 -0.4405,0.82308 -0.97525,0.65233 -2.01946,-0.64485 z"
       style="fill:#000000;fill-opacity:1;stroke:none;stroke-width:0.27846536;stroke-opacity:1"
       sodipodi:nodetypes="cssccccscscccsscsccsssssscscsscscccsccssccccccccscscscccscccccccccsscscccccc" />
    <ellipse
       ry="11.97401"
       rx="16.290222"
       cy="112.22154"
       cx="117.65161"
       id="path62"
       style="fill:#000000;fill-opacity:1;stroke:none;stroke-width:0.65501648;stroke-opacity:1" />
    <rect
       style="fill:#000000;fill-opacity:1;stroke:#000000;stroke-width:2.3816247;stroke-miterlimit:4;stroke-dasharray:none;stroke-opacity:1"
       id="rect851"
       width="27.547102"
       height="21.323284"
       x="181.37335"
       y="57.30479"
       ry="1.0146587"
       transform="matrix(0.89932316,0.43728463,-0.88894137,0.458021,0,0)" />
  </g>
  <ellipse
     style="fill:none;fill-opacity:1;stroke:#000000;stroke-width:12.42166424;stroke-miterlimit:4;stroke-dasharray:none;stroke-opacity:1"
     id="path80"
     cx="112.22153"
     cy="105.53837"
     rx="83.607239"
     ry="83.607231" />
  <rect
     style="fill:none;fill-opacity:1;stroke:#000000;stroke-width:50.62200165;stroke-miterlimit:4;stroke-dasharray:none;stroke-opacity:1"
     id="rect817"
     width="0"
     height="0"
     x="-59.870182"
     y="69.337868"
     ry="0" />
</svg>
